<svg width="253" height="106" viewBox="0 0 253 106" fill="none" xmlns="http://www.w3.org/2000/svg">
<path opacity="0.2" d="M45.4712 -54.7582L80.381 -29.5354M45.4712 -54.7582L11.1079 -32.5287M45.4712 -54.7582L77.3436 -136.769M80.381 -29.5354L77.3436 -136.769M80.381 -29.5354L58.002 19.9747M80.381 -29.5354L125.053 36M80.381 -29.5354L125.053 -30.768M80.381 -29.5354L130.442 -72.0425M77.3436 -136.769L130.442 -72.0425M77.3436 -136.769L154.932 -159.88M77.3436 -136.769L1.66712 -84.1731L11.1079 -32.5287M130.442 -72.0425L154.932 -159.88M130.442 -72.0425C144.177 -80.1098 172.136 -96.5166 174.097 -97.6055M130.442 -72.0425L197.443 -34.2777M154.932 -159.88C162.138 -139.575 176.059 -98.6945 174.097 -97.6055M154.932 -159.88L234.566 -105.45M174.097 -97.6055L197.443 -34.2777M174.097 -97.6055L234.566 -105.45M58.002 19.9747L11.1079 -32.5287M58.002 19.9747L125.053 36M125.053 36L149.002 71.4787M125.053 36L170.064 8.89181M125.053 36L125.053 -30.768M125.053 36L181.524 -22.7292M125.053 36L202.002 71.4787M177.502 91L149.002 71.4787M177.502 91L239.042 82.1478M177.502 91L189.055 156.315M177.502 91L202.002 71.4787M149.002 71.4787L195.433 31.8846M149.002 71.4787L170.064 8.89181M170.064 8.89181L195.433 31.8846M170.064 8.89181L181.524 -22.7292M170.064 8.89181L247.597 16.3778M125.053 -30.768L181.357 -33.4978M197.443 -34.2777L234.566 -105.45M197.443 -34.2777L181.357 -33.4978M197.443 -34.2777L209.342 -31.9764M234.566 -105.45L274.689 -15.7034M209.342 -31.9764L261.133 5.49145M209.342 -31.9764L195.433 -27.3528M209.342 -31.9764L274.689 -15.7034M209.342 -31.9764L224.993 -45.4225L301.485 -48.614M261.133 5.49145L247.597 16.3778M261.133 5.49145L291.493 45.3529M261.133 5.49145L274.689 -15.7034M261.133 5.49145L330.233 25.8268M195.433 31.8846L195.433 -27.3528M195.433 31.8846L310.347 19.9747L266.19 71.4787M195.433 31.8846L274.689 -15.7034M195.433 31.8846L202.002 71.4787M181.357 -33.4978L181.524 -22.7292M181.524 -22.7292L195.433 -27.3528M271.232 125.52L189.055 156.315M271.232 125.52L239.042 82.1478M271.232 125.52L277.222 187.475M271.232 125.52L340.724 113.607M271.232 125.52L299.93 63.0448M189.055 156.315L239.042 82.1478M189.055 156.315L216.337 162.413L277.222 187.475M239.042 82.1478L247.597 16.3778M239.042 82.1478L266.19 71.4787M239.042 82.1478L202.002 71.4787M299.93 63.0448L302.533 59.8479M299.93 63.0448L266.19 71.4787M302.533 59.8479L291.493 45.3529M302.533 59.8479C315.12 76.5683 340.38 110.729 340.724 113.607M302.533 59.8479L330.233 25.8268M266.19 71.4787L291.493 45.3529M291.493 45.3529L274.689 -15.7034M274.689 -15.7034L301.485 -48.614M301.485 -48.614L330.233 25.8268M330.233 25.8268L340.724 113.607M340.724 113.607L277.222 187.475M340.724 113.607L344.75 202.799M277.222 187.475L344.75 202.799M277.222 187.475L265.113 210.153L310.347 248.693M344.75 202.799L310.347 248.693M344.75 202.799L401.968 233.913L379.78 274.317L310.347 248.693M310.347 248.693L350.179 292.853" stroke="white" stroke-width="2"/>
</svg>
