<svg width="22" height="20" viewBox="0 0 22 20" fill="none" xmlns="http://www.w3.org/2000/svg">
<path d="M7.75 0.25C4.75846 0.25 2.33333 2.67512 2.33333 5.66667C2.33333 8.65821 4.75846 11.0833 7.75 11.0833C10.7415 11.0833 13.1667 8.65821 13.1667 5.66667C13.1667 2.67512 10.7415 0.25 7.75 0.25ZM4.5 5.66667C4.5 3.87174 5.95508 2.41667 7.75 2.41667C9.54493 2.41667 11 3.87174 11 5.66667C11 7.46159 9.54493 8.91667 7.75 8.91667C5.95508 8.91667 4.5 7.46159 4.5 5.66667Z" fill="#2C43A1"/>
<path d="M16.3175 5.90314C16.0127 5.74774 15.6754 5.66673 15.3333 5.66673V3.50007C16.0176 3.50007 16.6921 3.66203 17.3016 3.97282C17.3688 4.00705 17.4349 4.04298 17.5 4.08056C18.0258 4.38415 18.4828 4.79533 18.8404 5.2881C19.2423 5.84187 19.5073 6.48293 19.6138 7.15881C19.7204 7.8347 19.6653 8.52621 19.4532 9.17672C19.2411 9.82724 18.8779 10.4183 18.3934 10.9015C17.909 11.3847 17.317 11.7463 16.6659 11.9567C16.0866 12.1439 15.4751 12.2067 14.8713 12.142C14.7966 12.134 14.722 12.124 14.6476 12.1121C13.9725 12.0039 13.3325 11.7374 12.7801 11.3346L12.7789 11.3337L14.0561 9.58353C14.3325 9.78519 14.6527 9.9185 14.9905 9.97264C15.3283 10.0268 15.6741 10.0001 15.9996 9.89494C16.3251 9.78974 16.6211 9.60894 16.8633 9.36736C17.1056 9.12577 17.2871 8.83026 17.3932 8.50501C17.4993 8.17976 17.5268 7.83402 17.4735 7.49608C17.4203 7.15815 17.2878 6.83763 17.0868 6.56076C16.8859 6.28388 16.6222 6.05853 16.3175 5.90314Z" fill="#2C43A1"/>
<path d="M19.6646 19.75C19.6646 19.1812 19.5526 18.618 19.3349 18.0925C19.1172 17.567 18.7982 17.0895 18.396 16.6873C17.9938 16.2851 17.5163 15.9661 16.9908 15.7484C16.4653 15.5308 15.9021 15.4187 15.3333 15.4187V13.25C16.0723 13.25 16.8049 13.376 17.5 13.6217C17.6079 13.6599 17.7148 13.7009 17.8208 13.7448C18.6094 14.0714 19.3259 14.5502 19.9295 15.1538C20.5331 15.7574 21.0119 16.4739 21.3386 17.2626C21.3824 17.3685 21.4235 17.4755 21.4616 17.5833C21.7073 18.2784 21.8333 19.0111 21.8333 19.75H19.6646Z" fill="#2C43A1"/>
<path d="M15.3333 19.75H13.1667C13.1667 16.7585 10.7415 14.3333 7.75 14.3333C4.75846 14.3333 2.33333 16.7585 2.33333 19.75H0.166668C0.166668 15.5618 3.56184 12.1667 7.75 12.1667C11.9382 12.1667 15.3333 15.5618 15.3333 19.75Z" fill="#2C43A1"/>
</svg>
