<svg width="16" height="20" viewBox="0 0 16 20" fill="none" xmlns="http://www.w3.org/2000/svg">
<path fill-rule="evenodd" clip-rule="evenodd" d="M4.75033 7.83345C4.75033 9.62837 6.2054 11.0834 8.00033 11.0834C8.86228 11.0834 9.68893 10.741 10.2984 10.1315C10.9079 9.52205 11.2503 8.6954 11.2503 7.83345C11.2503 6.03852 9.79525 4.58345 8.00033 4.58345C6.2054 4.58345 4.75033 6.03852 4.75033 7.83345ZM8.00071 9.24518C8.78035 9.24518 9.41238 8.61315 9.41238 7.83351C9.41238 7.05386 8.78035 6.42183 8.00071 6.42183C7.22106 6.42183 6.58903 7.05386 6.58903 7.83351C6.58903 8.61315 7.22106 9.24518 8.00071 9.24518Z" fill="#2C43A1"/>
<path fill-rule="evenodd" clip-rule="evenodd" d="M4.20866 15.9249C5.3637 17.3034 6.63201 18.583 8.00033 19.7501C9.36865 18.583 10.637 17.3034 11.792 15.9249C13.5253 13.8546 15.5837 10.7714 15.5837 7.83345C15.5901 5.82104 14.7912 3.88969 13.365 2.46987C11.1962 0.299126 7.93304 -0.350696 5.09815 0.823629C2.26326 1.99796 0.415458 4.76496 0.416993 7.83345C0.416993 10.7714 2.47533 13.8546 4.20866 15.9249ZM2.58366 7.83345C2.58724 4.84339 5.01027 2.42036 8.00033 2.41678C10.9904 2.42036 13.4134 4.84339 13.417 7.83345C13.417 9.09553 12.8461 11.2828 10.1302 14.5382C9.45984 15.3365 8.74896 16.0998 8.00033 16.8251C7.25176 16.0989 6.54123 15.3345 5.87158 14.5349C3.15458 11.2839 2.58366 9.09662 2.58366 7.83345Z" fill="#2C43A1"/>
</svg>
