<svg width="22" height="20" viewBox="0 0 22 20" fill="none" xmlns="http://www.w3.org/2000/svg">
<path fill-rule="evenodd" clip-rule="evenodd" d="M0.166664 0.25H5.58333L6.33963 3.50053H18.6891H19.7208L19.7217 3.49747H21.832L19.5651 13.2542L19.5262 13.25H6.38737V13.2495L6.38314 13.25L3.86286 2.41667H0.166664V0.25ZM8.1039 11.0833H17.8424L18.557 8.01233L18.8482 6.76086L18.9937 6.13513L19.0665 5.82226L19.1074 5.66719H18.8542H16.9583H13.1667H6.84374L8.1039 11.0833ZM11 17.0417C11 18.5374 9.78744 19.75 8.29166 19.75C6.79589 19.75 5.58333 18.5374 5.58333 17.0417C5.58333 15.5459 6.79589 14.3333 8.29166 14.3333C9.78744 14.3333 11 15.5459 11 17.0417ZM17.5 19.75C18.9958 19.75 20.2083 18.5374 20.2083 17.0417C20.2083 15.5459 18.9958 14.3333 17.5 14.3333C16.0042 14.3333 14.7917 15.5459 14.7917 17.0417C14.7917 18.5374 16.0042 19.75 17.5 19.75Z" fill="#2C43A1"/>
</svg>
