<svg width="16" height="17" viewBox="0 0 16 17" fill="none" xmlns="http://www.w3.org/2000/svg">
<circle cx="8" cy="8" r="8" fill="#B7DDFA"/>
<path d="M11.0091 12H4.84907V10.964L5.92707 9.956C7.09374 8.88267 7.9104 8.04733 8.37707 7.45C8.84374 6.84333 9.08174 6.25533 9.09107 5.686C9.09107 5.22867 8.9604 4.86 8.69907 4.58C8.43774 4.29067 8.02707 4.146 7.46707 4.146C6.8324 4.146 6.18374 4.398 5.52107 4.902L5.01707 3.684C5.79174 3.05867 6.72507 2.746 7.81707 2.746C8.7784 2.746 9.51574 3.00733 10.0291 3.53C10.5517 4.05267 10.8131 4.71067 10.8131 5.504C10.8131 6.01733 10.6871 6.53067 10.4351 7.044C10.1831 7.55733 9.87507 8.01933 9.51107 8.43C9.1564 8.84067 8.67574 9.32133 8.06907 9.872L7.28507 10.558V10.586H11.0091V12Z" fill="#2C43A1"/>
</svg>
