<svg width="20" height="20" viewBox="0 0 20 20" fill="none" xmlns="http://www.w3.org/2000/svg">
<path d="M17.8385 19.5L11.1277 12.7885C8.14246 14.9107 4.02886 14.3916 1.66447 11.5943C-0.699915 8.79696 -0.526304 4.65462 2.06386 2.06491C4.65334 -0.525933 8.79634 -0.700284 11.5944 1.66384C14.3924 4.02796 14.9118 8.14171 12.7893 11.1271L19.5 17.8386L17.8396 19.4988L17.8385 19.5ZM7.04494 2.34904C4.81825 2.34854 2.8972 3.91148 2.44487 6.09161C1.99253 8.27174 3.13324 10.4699 5.17636 11.3551C7.21948 12.2404 9.60347 11.5695 10.885 9.74867C12.1664 7.92781 11.9932 5.45743 10.4702 3.83319L11.1806 4.53769L10.3798 3.73926L10.3657 3.72517C9.48709 2.84124 8.29126 2.34568 7.04494 2.34904Z" fill="#38393F"/>
</svg>
