<svg width="20" height="20" viewBox="0 0 20 20" fill="none" xmlns="http://www.w3.org/2000/svg">
<path d="M18.0885 19.75L11.3777 13.0385C8.39246 15.1607 4.27886 14.6416 1.91447 11.8443C-0.449915 9.04696 -0.276304 4.90462 2.31386 2.31491C4.90334 -0.275933 9.04634 -0.450284 11.8444 1.91384C14.6424 4.27796 15.1618 8.39171 13.0393 11.3771L19.75 18.0886L18.0896 19.7488L18.0885 19.75ZM7.29494 2.59904C5.06825 2.59854 3.1472 4.16148 2.69487 6.34161C2.24253 8.52174 3.38324 10.7199 5.42636 11.6051C7.46948 12.4904 9.85347 11.8195 11.135 9.99867C12.4164 8.17781 12.2432 5.70743 10.7202 4.08319L11.4306 4.78769L10.6298 3.98926L10.6157 3.97517C9.73709 3.09124 8.54126 2.59568 7.29494 2.59904Z" fill="#2C43A1"/>
</svg>
