<svg width="147" height="60" viewBox="0 0 147 60" fill="none" xmlns="http://www.w3.org/2000/svg">
<path d="M69.2207 60C112.177 60 147 46.5685 147 30C147 13.4315 112.177 0 69.2207 0C39.0557 0 12.9015 6.62329 0 16.3051C8.33629 11.5934 19.9261 7.73693 33.0191 5.7763C35.2791 5.43786 37.5132 5.16651 39.7112 4.95977C47.2537 3.78488 55.4394 3.14136 63.9932 3.14136C101.613 3.14136 132.11 15.5883 132.11 30.9424C132.11 46.2965 101.613 58.7435 63.9932 58.7435C55.8635 58.7435 48.0664 58.1622 40.8378 57.0959C40.1056 57.0242 39.3693 56.9461 38.6293 56.8615C32.8436 56.2001 27.367 55.2017 22.4044 53.959C35.4292 57.7513 51.6441 60 69.2207 60Z" fill="#2C43A1"/>
<path d="M19.4817 36.1248L11.0859 15.0776H21.2242L26.4517 27.3289L33.4218 15.0776H54.8071L57.1833 31.5698L66.0542 15.0776H78.727L72.0738 46.4912H62.5692L65.579 32.1981L58.1337 46.4912H50.53L48.6291 32.1981L45.6193 46.4912H36.1147L42.2927 18.0619C40.8142 20.3132 36.7167 26.6693 32.1545 34.0829C26.4517 43.3499 25.026 44.2923 22.333 46.02C20.1787 47.4022 14.7822 46.9101 12.3532 46.4912V38.7949H16.7887C20.0836 38.7949 19.9569 37.0148 19.4817 36.1248Z" fill="#2C43A1"/>
<path d="M75.0836 46.4912L81.7368 15.0776H91.2414L89.3405 24.3447L98.2115 15.0776H110.409L94.8848 30.3132L104.073 46.4912H93.1423L86.9643 34.7111L84.5882 46.4912H75.0836Z" fill="#2C43A1"/>
<mask id="mask0_30_323" style="mask-type:alpha" maskUnits="userSpaceOnUse" x="11" y="15" width="100" height="32">
<path d="M19.4817 36.1257L11.0859 15.0786H21.2242L26.4517 27.3299L33.4218 15.0786H54.8071L57.1833 31.5708L66.0542 15.0786H78.727L72.0738 46.4922H62.5692L65.579 32.199L58.1337 46.4922H50.53L48.6291 32.199L45.6193 46.4922H36.1147L42.2927 18.0629C40.8142 20.3142 36.7167 26.6702 32.1545 34.0838C26.4517 43.3509 25.026 44.2933 22.333 46.021C20.1787 47.4032 14.7822 46.9111 12.3532 46.4922V38.7959H16.7887C20.0836 38.7959 19.9569 37.0158 19.4817 36.1257Z" fill="#264796"/>
<path d="M75.0836 46.4922L81.7368 15.0786H91.2414L89.3405 24.3456L98.2115 15.0786H110.409L94.8848 30.3142L104.073 46.4922H93.1423L86.9643 34.7121L84.5882 46.4922H75.0836Z" fill="#264796"/>
</mask>
<g mask="url(#mask0_30_323)">
<rect x="11.0859" y="30.1562" width="94.7292" height="19.1623" fill="url(#paint0_linear_30_323)"/>
</g>
<defs>
<linearGradient id="paint0_linear_30_323" x1="58.4505" y1="30.1562" x2="58.4505" y2="44.6065" gradientUnits="userSpaceOnUse">
<stop stop-color="#91C1F1"/>
<stop offset="1" stop-color="#91C1F1" stop-opacity="0"/>
</linearGradient>
</defs>
</svg>
