<svg width="1299" height="291" viewBox="0 0 1299 291" fill="none" xmlns="http://www.w3.org/2000/svg">
<path d="M1215.22 106.782L1106.39 132.202M1215.22 106.782L1230.19 1.64171M1215.22 106.782L1321.56 308.825M1106.39 132.202L1321.56 308.825M1106.39 132.202L1043.78 3.33311M1106.39 132.202L901.038 99.2617M1106.39 132.202L1032.75 221.781M1106.39 132.202L1104.4 302.607M1321.56 308.825L1104.4 302.607M1321.56 308.825L1234.72 500.113M1321.56 308.825L1347.4 71.081L1230.19 1.64171M1104.4 302.607L1234.72 500.113M1104.4 302.607C1096.82 343.238 1081.34 425.924 1080.14 431.619M1104.4 302.607L916.374 369.519M1234.72 500.113C1182.69 479.655 1078.93 437.315 1080.14 431.619M1234.72 500.113L992.548 563.39M1080.14 431.619L916.374 369.519M1080.14 431.619L992.548 563.39M1043.78 3.33311L1230.19 1.64171M1043.78 3.33311L901.038 99.2617M901.038 99.2617L796.475 81.5799M901.038 99.2617L829.746 241.92M901.038 99.2617L1032.75 221.781M901.038 99.2617L920.862 318.682M901.038 99.2617L684.327 244.22L707.901 132.774M707.901 132.774L796.475 81.5799M707.901 132.774L633.154 243.658M707.901 132.774L557.419 28.597M796.475 81.5799L760.313 245.053M796.475 81.5799L829.746 241.92M829.746 241.92L760.313 245.053M829.746 241.92L920.862 318.682M829.746 241.92L735.779 415.941M1032.75 221.781L942.235 336.688M916.374 369.519L992.548 563.39M916.374 369.519L942.235 336.688M916.374 369.519L891.609 388.902M992.548 563.39L748.484 489.166M891.609 388.902L730.059 426.533M891.609 388.902L906.236 353.792M891.609 388.902L748.484 489.166M891.609 388.902L891.295 442.443L767.312 597.672M730.059 426.533L735.779 415.941M730.059 426.533L600.31 418.12M730.059 426.533L748.484 489.166M730.059 426.533L572.591 527.229M760.313 245.053L906.236 353.792M760.313 245.053L633.154 243.658M760.313 245.053L574.068 464.571L592.227 324.09M760.313 245.053L748.484 489.166M942.235 336.688L920.862 318.682M920.862 318.682L906.236 353.792M477.813 241.955L557.419 28.597M477.813 241.955L633.154 243.658M477.813 241.955L346.291 148.203M477.813 241.955L382.83 398.324M477.813 241.955L551.299 404.521M557.419 28.597L633.154 243.658M557.419 28.597L499.029 71.6434L346.291 148.203M633.154 243.658L735.779 415.941M633.154 243.658L592.227 324.09M551.299 404.521L553.128 415.061M551.299 404.521L592.227 324.09M553.128 415.061L600.31 418.12M553.128 415.061C498.955 411.243 389.052 402.55 382.83 398.324M553.128 415.061L572.591 527.229M592.227 324.09L600.31 418.12M600.31 418.12L748.484 489.166M748.484 489.166L767.312 597.672M767.312 597.672L572.591 527.229M572.591 527.229L382.83 398.324M382.83 398.324L346.291 148.203M382.83 398.324L201.311 254.353M346.291 148.203L201.311 254.353M346.291 148.203L322.495 85.8803L170.01 108.847M201.311 254.353L170.01 108.847M201.311 254.353L42.9648 313.431L1.61773 201.189L170.01 108.847M170.01 108.847L15.7159 111.665" stroke="#EAEAEA" stroke-width="2"/>
</svg>
