<svg width="638" height="267" viewBox="0 0 638 267" fill="none" xmlns="http://www.w3.org/2000/svg">
<path d="M579.482 359.633L504.927 322.518M579.482 359.633L613.562 388.379L538.57 477.075M579.482 359.633L621.586 177.281M504.927 322.518L621.586 177.281M504.927 322.518L538.57 477.075M504.927 322.518L348.028 388.446M504.927 322.518L429.042 265.545M504.927 322.518L470.371 187.417M621.586 177.281L470.371 187.417M621.586 177.281L636.215 87.6302L566.687 29.7976M470.371 187.417L566.687 29.7976M470.371 187.417C456.478 156.579 428.176 93.8308 426.114 89.5362M470.371 187.417L307.925 170.6M566.687 29.7976C529.278 56.1317 424.052 85.2416 426.114 89.5362M566.687 29.7976L330.975 1.71539M426.114 89.5362L307.925 170.6M426.114 89.5362L330.975 1.71539M538.57 477.075L348.028 388.446M348.028 388.446L244.616 317.803M348.028 388.446L263.739 288.815M348.028 388.446L429.042 265.545M348.028 388.446L321.331 210.151M348.028 388.446L147.673 315.126L187.982 399.173M187.982 399.173L244.616 317.803M187.982 399.173L107.095 325.474M187.982 399.173L88.4941 511.122M244.616 317.803L207.928 299.76M244.616 317.803L263.739 288.815M263.739 288.815L207.928 299.76M263.739 288.815L321.331 210.151M263.739 288.815L155.353 168.636M429.042 265.545L334.84 191.699M307.925 170.6L330.975 1.71539M307.925 170.6L334.84 191.699M307.925 170.6L284.485 159.981M330.975 1.71539L169.704 33.3995L118.605 77.8652M284.485 159.981L148.756 161.321M284.485 159.981L302.908 185.066M284.485 159.981L118.605 77.8652M148.756 161.321L155.353 168.636M148.756 161.321L47.2218 193.117M148.756 161.321L118.605 77.8652M148.756 161.321L-38.0843 112.788M207.928 299.76L302.908 185.066M207.928 299.76L107.095 325.474M207.928 299.76L17.3686 161.262L58.9902 269.444M207.928 299.76L118.605 77.8652M334.84 191.699L321.331 210.151M321.331 210.151L302.908 185.066M-16.0853 356.887L88.4941 511.122M-16.0853 356.887L107.095 325.474M-16.0853 356.887L-102.516 456.878M-16.0853 356.887L-121.863 250.94M-16.0853 356.887L10.8857 213.413M88.4941 511.122L107.095 325.474M88.4941 511.122L33.7387 488.195L-102.516 456.878M107.095 325.474L155.353 168.636M107.095 325.474L58.9902 269.444M10.8857 213.413L10.3002 204.679M10.8857 213.413L58.9902 269.444M10.3002 204.679L47.2218 193.117M10.3002 204.679C-32.0338 218.198 -117.734 246.376 -121.863 250.94M10.3002 204.679L-38.0843 112.788M58.9902 269.444L47.2218 193.117M47.2218 193.117L118.605 77.8652M118.605 77.8652L-12.8524 83.1223L-38.0843 112.788M-38.0843 112.788L-121.863 250.94M-38.0843 112.788L-174.648 67.1905M-121.863 250.94L-102.516 456.878M-121.863 250.94L-262.157 242.058M-121.863 250.94L-244.524 381.065M-121.863 250.94L-174.648 67.1905M-102.516 456.878L-244.524 381.065M-102.516 456.878L-235.059 522.281M-174.648 67.1905L-262.157 242.058M-174.648 67.1905L-290.228 137.551M-174.648 67.1905L-369.655 52.5562L-290.228 137.551M-262.157 242.058L-244.524 381.065M-262.157 242.058L-336.833 227.947L-371.43 249.382M-262.157 242.058L-290.228 137.551M-244.524 381.065L-235.059 522.281M-244.524 381.065L-360.559 411.56L-373.984 426.313L-235.059 522.281M-244.524 381.065L-371.43 249.382M-371.43 249.382L-376.421 174.913L-290.228 137.551" stroke="#EAEAEA" stroke-width="2"/>
</svg>
